<svg width="13" height="12" viewBox="0 0 13 12" fill="none" xmlns="http://www.w3.org/2000/svg">
<path d="M1.5 1.5H4.5C5.03043 1.5 5.53914 1.71071 5.91421 2.08579C6.28929 2.46086 6.5 2.96957 6.5 3.5V10.5C6.5 10.1022 6.34196 9.72064 6.06066 9.43934C5.77936 9.15804 5.39782 9 5 9H1.5V1.5Z" stroke="#2D3E5B" stroke-linecap="round" stroke-linejoin="round"/>
<path d="M11.5 1.5H8.5C7.96957 1.5 7.46086 1.71071 7.08579 2.08579C6.71071 2.46086 6.5 2.96957 6.5 3.5V10.5C6.5 10.1022 6.65804 9.72064 6.93934 9.43934C7.22064 9.15804 7.60218 9 8 9H11.5V1.5Z" stroke="#2D3E5B" stroke-linecap="round" stroke-linejoin="round"/>
</svg>
