<svg width="12" height="12" viewBox="0 0 12 12" fill="none" xmlns="http://www.w3.org/2000/svg">
<g clip-path="url(#clip0_235_23)">
<path d="M7.99998 11.0134V9.5784C8.01873 9.34 7.98653 9.1003 7.90548 8.8753C7.82443 8.6503 7.69643 8.4451 7.52998 8.2734C9.09998 8.0984 10.75 7.5034 10.75 4.7734C10.7498 4.07531 10.4813 3.404 9.99998 2.8984C10.2279 2.28765 10.2118 1.61257 9.95498 1.0134C9.95498 1.0134 9.36498 0.838397 7.99998 1.7534C6.85398 1.44281 5.64598 1.44281 4.49998 1.7534C3.13498 0.838397 2.54498 1.0134 2.54498 1.0134C2.28816 1.61257 2.27205 2.28765 2.49998 2.8984C2.01504 3.40775 1.74624 4.08513 1.74998 4.7884C1.74998 7.4984 3.39997 8.0934 4.96997 8.2884C4.80547 8.4584 4.67861 8.6611 4.59763 8.88335C4.51665 9.1056 4.48338 9.34245 4.49998 9.5784V11.0134" stroke="#2D3E5B" stroke-width="1.5" stroke-linecap="round" stroke-linejoin="round"/>
<path d="M4.5 10.0134C3 10.5 1.75 10.0134 1 8.51337" stroke="#2D3E5B" stroke-width="1.5" stroke-linecap="round" stroke-linejoin="round"/>
</g>
<defs>
<clipPath id="clip0_235_23">
<rect width="12" height="12" fill="white"/>
</clipPath>
</defs>
</svg>
