<svg width="12" height="13" viewBox="0 0 12 13" fill="none" xmlns="http://www.w3.org/2000/svg">
<path d="M8.5 1.5H3.5C2.11929 1.5 1 2.61929 1 4V9C1 10.3807 2.11929 11.5 3.5 11.5H8.5C9.88071 11.5 11 10.3807 11 9V4C11 2.61929 9.88071 1.5 8.5 1.5Z" stroke="#2D3E5B" stroke-width="0.8" stroke-linecap="round" stroke-linejoin="round"/>
<path d="M8.00001 6.18503C8.06171 6.60115 7.99064 7.02614 7.79689 7.39954C7.60314 7.77294 7.29658 8.07573 6.92082 8.26487C6.54506 8.454 6.11923 8.51983 5.7039 8.45299C5.28857 8.38616 4.90489 8.19007 4.60743 7.89261C4.30996 7.59515 4.11387 7.21147 4.04704 6.79614C3.98021 6.3808 4.04604 5.95498 4.23517 5.57922C4.4243 5.20346 4.7271 4.8969 5.1005 4.70315C5.4739 4.5094 5.89888 4.43832 6.31501 4.50003C6.73947 4.56297 7.13243 4.76076 7.43585 5.06418C7.73927 5.3676 7.93706 5.76057 8.00001 6.18503Z" stroke="#2D3E5B" stroke-width="0.8" stroke-linecap="round" stroke-linejoin="round"/>
<path d="M8.75 3.75H8.755" stroke="#2D3E5B" stroke-width="0.8" stroke-linecap="round" stroke-linejoin="round"/>
</svg>
