<svg width="10" height="12" viewBox="0 0 10 12" fill="none" xmlns="http://www.w3.org/2000/svg">
<path d="M5 0C7.76142 0 10 2.21117 10 4.93879C10 7.02557 8.51561 9.29975 5.58472 11.7862C5.24841 12.0715 4.75158 12.0715 4.41393 11.785L4.22021 11.6191C1.41904 9.19824 0 6.97905 0 4.93879C0 2.21117 2.23858 0 5 0ZM5 0.759814C2.66341 0.759814 0.769231 2.63081 0.769231 4.93879C0.769231 6.71273 2.0761 8.75651 4.72541 11.0462L4.91646 11.2098C4.9645 11.2505 5.03548 11.2505 5.08353 11.2098C7.86099 8.85351 9.23077 6.75492 9.23077 4.93879C9.23077 2.63081 7.33659 0.759814 5 0.759814ZM5 3.03926C6.06209 3.03926 6.92308 3.88971 6.92308 4.93879C6.92308 5.98788 6.06209 6.83833 5 6.83833C3.93791 6.83833 3.07692 5.98788 3.07692 4.93879C3.07692 3.88971 3.93791 3.03926 5 3.03926ZM5 3.79907C4.36275 3.79907 3.84615 4.30934 3.84615 4.93879C3.84615 5.56824 4.36275 6.07851 5 6.07851C5.63725 6.07851 6.15385 5.56824 6.15385 4.93879C6.15385 4.30934 5.63725 3.79907 5 3.79907Z" fill="#2D3E5B"/>
</svg>
