<svg width="12" height="12" viewBox="0 0 12 12" fill="none" xmlns="http://www.w3.org/2000/svg">
<path fill-rule="evenodd" clip-rule="evenodd" d="M2.89377 7.0098C2.91566 7.0172 2.93775 7.0224 2.95982 7.0256C2.98389 7.0822 3.01498 7.15535 3.05126 7.2409C3.1398 7.4497 3.25909 7.73215 3.38223 8.02675C3.63335 8.6276 3.88666 9.24695 3.94261 9.42425C4.01186 9.6434 4.08507 9.7924 4.16498 9.89415C4.2063 9.94675 4.2541 9.99265 4.31002 10.0274C4.33817 10.0449 4.3679 10.0593 4.39894 10.07C4.40031 10.0705 4.40168 10.0709 4.40304 10.0714C4.56305 10.1318 4.70893 10.1067 4.80027 10.0759C4.84914 10.0594 4.88868 10.0395 4.9167 10.0234C4.93099 10.0152 4.94306 10.0075 4.95269 10.001L4.95496 9.99955L6.36805 9.1183L8.00035 10.3697C8.0244 10.3882 8.0507 10.4037 8.0785 10.4158C8.2746 10.5014 8.4645 10.5312 8.6431 10.5068C8.82145 10.4824 8.963 10.4076 9.0684 10.3232C9.1716 10.2407 9.2416 10.1481 9.28515 10.0794C9.3074 10.0443 9.3241 10.0133 9.3359 9.98955C9.3418 9.9776 9.34655 9.9673 9.35025 9.95905L9.35495 9.94815L9.35675 9.94385L9.3575 9.94205L9.3578 9.9412L9.35815 9.9404C9.3667 9.91895 9.3733 9.89675 9.3778 9.8741L10.8679 2.36137C10.8727 2.33735 10.8751 2.3129 10.8751 2.28841C10.8751 2.0684 10.7922 1.8592 10.5973 1.73226C10.4307 1.62376 10.2451 1.61909 10.1278 1.62799C10.0013 1.63759 9.8844 1.66883 9.806 1.69378C9.7652 1.70677 9.73095 1.7193 9.7063 1.72886C9.6939 1.73367 9.68375 1.73779 9.67615 1.74094L9.6705 1.74333L1.31363 5.0216L1.31255 5.022C1.30722 5.02395 1.30038 5.0265 1.29226 5.02965C1.27608 5.03595 1.25439 5.0448 1.22907 5.0563C1.17968 5.0787 1.11039 5.11365 1.03928 5.16235C0.925686 5.24015 0.664441 5.4532 0.708431 5.80485C0.743526 6.0854 0.935716 6.2577 1.05281 6.34055C1.11711 6.38605 1.17819 6.41855 1.22268 6.43975C1.24331 6.44955 1.28616 6.46695 1.30475 6.47455L1.30945 6.47645L2.89377 7.0098ZM9.96295 2.43393L9.9618 2.43444C9.9576 2.43625 9.95345 2.43798 9.9492 2.43964L1.5822 5.7219C1.57783 5.7236 1.57343 5.72525 1.569 5.7268L1.56435 5.72855C1.55899 5.73065 1.54998 5.7343 1.53867 5.7394C1.53226 5.7423 1.52556 5.7455 1.51874 5.7489C1.52811 5.7542 1.53709 5.75875 1.54506 5.76255C1.55272 5.7662 1.55856 5.7687 1.56175 5.77L3.13307 6.299C3.16183 6.3087 3.18864 6.3215 3.21325 6.337L8.40165 3.29974L8.4065 3.29687C8.41025 3.29463 8.41525 3.29176 8.4212 3.2884C8.433 3.28172 8.4492 3.27284 8.4685 3.26302C8.5045 3.24469 8.56215 3.21748 8.62705 3.19742C8.6722 3.18346 8.80545 3.14412 8.9495 3.19032C9.0384 3.21884 9.13045 3.28014 9.19035 3.38399C9.22005 3.43559 9.2359 3.48741 9.2436 3.53486C9.264 3.6096 9.26075 3.6834 9.2448 3.74712C9.2104 3.88437 9.114 3.99144 9.02625 4.07333C8.95105 4.14353 7.97835 5.08145 7.0188 6.00735C6.54025 6.46905 6.06665 6.92625 5.7126 7.26795L5.4801 7.49245L8.41605 9.74335C8.4834 9.76745 8.5232 9.76625 8.5416 9.7637C8.56355 9.7607 8.5815 9.75225 8.59985 9.7376C8.62035 9.7212 8.6383 9.699 8.6517 9.67785L8.65225 9.677L10.0975 2.39051C10.0761 2.39567 10.0544 2.4018 10.0335 2.40845C10.0098 2.41599 9.99025 2.42317 9.97735 2.42818C9.9709 2.43067 9.9663 2.43255 9.9638 2.43359L9.96295 2.43393ZM5.7323 8.6309L5.14655 8.1818L5.00465 9.08465L5.7323 8.6309ZM4.60923 7.2907L5.1917 6.72835C5.54575 6.3866 6.01945 5.9294 6.49805 5.4676L6.9843 4.9985L3.72427 6.9069L3.74176 6.94815C3.83061 7.1577 3.95044 7.44135 4.07423 7.73755C4.16679 7.959 4.26359 8.1922 4.35175 8.4081L4.49327 7.5079C4.50691 7.4211 4.54931 7.346 4.60923 7.2907Z" fill="#2D3E5B"/>
</svg>
